<?xml version="1.0" encoding="UTF-8"?>
<svg id="Layer_1" data-name="Layer 1" xmlns="http://www.w3.org/2000/svg" viewBox="0 0 1920 1080">
  <defs>
    <style>
      .cls-1 {
        fill: #c42126;
      }

      .cls-1, .cls-2, .cls-3, .cls-4, .cls-5 {
        stroke-width: 0px;
      }

      .cls-2 {
        fill: #e72f25;
      }

      .cls-3 {
        fill: #fecf07;
      }

      .cls-4 {
        fill: #fff;
      }

      .cls-5 {
        fill: #ee7d22;
      }
    </style>
  </defs>
  <g>
    <g>
      <path class="cls-4" d="m485.392,968.324c-1.69,0-3.594,0-5.495-.067l-2.33-.003c-59.999-1.079-117.844-14.325-171.928-39.371-52.285-24.213-98.466-58.19-137.259-100.984-1.814-1.9-3.318-3.572-4.71-5.235-68.721-78.062-106.57-178.455-106.57-282.698,0-57.819,11.325-113.913,33.659-166.724,21.57-51.004,52.448-96.805,91.775-136.132,39.327-39.328,85.129-70.205,136.132-91.775,52.811-22.334,108.905-33.659,166.724-33.659s113.917,11.325,166.734,33.659c51.011,21.57,96.82,52.448,136.155,91.774,39.337,39.328,70.223,85.13,91.799,136.132,22.342,52.812,33.671,108.907,33.671,166.725,0,103.639-37.52,203.654-105.657,281.643-1.526,1.824-3.052,3.496-4.528,5.113-38.85,43.106-85.129,77.348-137.535,101.753-54.069,25.179-111.905,38.536-171.915,39.703-1.027.071-1.935.078-2.704.078-2.082.068-4.083.068-6.021.068Z"/>
      <path class="cls-1" d="m485.391,125.451c228.954,0,414.584,185.561,414.584,414.515,0,104.421-38.641,199.819-102.354,272.693-1.378,1.653-2.824,3.237-4.271,4.822-74.183,82.311-180.877,134.728-299.9,136.932-.758.069-1.515.069-2.273.069-1.929.068-3.857.068-5.786.068-1.722,0-3.513,0-5.235-.068h-2.342c-118.679-2.135-225.235-54.139-299.349-135.968-1.515-1.584-2.962-3.168-4.339-4.821-64.333-73.012-103.25-168.823-103.25-273.726,0-228.954,185.561-414.515,414.515-414.515m0-27.552c-59.672,0-117.572,11.691-172.09,34.747-52.646,22.265-99.919,54.134-140.508,94.722-40.588,40.588-72.457,87.862-94.722,140.508-23.057,54.518-34.747,112.417-34.747,172.09,0,54.715,9.871,108.114,29.337,158.715,18.777,48.808,45.878,93.538,80.556,132.957,1.524,1.814,3.15,3.623,5.073,5.642,19.679,21.691,41.606,41.498,65.176,58.876,23.852,17.585,49.551,32.802,76.383,45.227,55.833,25.856,115.542,39.531,177.469,40.645l.248.004h2.092c2.05.069,3.997.069,5.733.069,1.894,0,4.022,0,6.254-.069.812-.002,1.851-.014,3.055-.088,61.827-1.245,121.423-15.032,177.146-40.983,26.872-12.514,52.607-27.835,76.491-45.536,23.667-17.541,45.68-37.54,65.425-59.441,1.487-1.629,3.132-3.434,4.799-5.42,34.375-39.371,61.244-83.974,79.857-132.568,19.315-50.423,29.108-103.593,29.108-158.032,0-59.672-11.695-117.573-34.759-172.093-22.271-52.645-54.149-99.918-94.747-140.507-40.596-40.587-87.877-72.455-140.53-94.72-54.524-23.056-112.427-34.747-172.099-34.747h0Z"/>
    </g>
    <path class="cls-1" d="m829.718,628.889c-10.745,61.578-21.421,122.743-32.098,183.77-1.378,1.653-2.824,3.237-4.27,4.822,5.028-49.249,9.988-98.566,15.085-147.953-10.676,0-20.871-.482-30.996.138-51.866,3.1-103.181,10.194-153.256,24.934-30.789,9.023-60.82,19.975-86.857,39.33-7.095,5.304-13.5,11.778-19.424,18.391-8.472,9.367-11.158,21.077-11.985,33.407-3.168,45.322-6.406,90.576-9.712,135.898-.758,10.952-1.653,21.904-2.755,32.787-.758.069-1.515.069-2.273.069,0-64.058-.138-128.253.137-192.38.069-21.628,11.296-38.228,26.794-52.141,20.457-18.391,44.978-29.825,70.463-39.192,44.978-16.462,91.61-26.037,138.861-32.098,31.271-4.064,62.749-6.612,94.089-9.712,2.342-.276,4.822-.069,8.197-.069Z"/>
    <path class="cls-1" d="m480.156,763.41c.069,63.645,0,127.426,0,191.071h-2.342c-1.929-26.312-3.857-52.555-5.786-78.867-2.342-32.098-4.408-64.264-7.025-96.362-1.378-16.944-11.227-29.412-23.694-39.881-19.424-16.393-42.154-26.932-65.78-35.541-44.565-16.255-90.783-25.416-137.896-30.307-21.766-2.273-43.67-3.237-65.573-4.753-2.617-.206-5.304-.069-9.023-.069,5.166,50.42,10.263,100.151,15.429,149.812-1.515-1.584-2.962-3.168-4.339-4.821-10.676-61.441-21.421-123.019-32.373-185.354,10.332.758,19.631,1.309,28.86,2.066,62.336,5.235,124.12,13.432,184.252,31.065,30.169,8.886,59.512,19.837,85.479,38.09,18.666,13.087,34.164,28.86,38.779,52.486.758,3.719,1.033,7.577,1.033,11.365Z"/>
    <path class="cls-2" d="m479.95,722.495c-9.643-9.574-18.666-20.113-29.274-28.722-30.238-24.59-65.504-39.881-102.01-52.486-54.69-18.735-111.033-29.136-168.479-34.026-13.156-1.171-10.952.758-13.018-12.605-1.24-8.265-2.273-16.6-3.581-26.243,15.222,1.653,28.929,2.824,42.567,4.684,50.695,7.026,100.081,19.355,147.47,38.848,37.47,15.36,72.805,34.371,100.632,64.816,12.192,13.363,21.353,28.447,25.692,45.735Z"/>
    <path class="cls-2" d="m807.815,568.757c-1.171,8.954-2.135,17.288-3.306,25.485-1.86,12.33-1.929,12.054-14.602,13.156-70.326,6.268-138.929,20.044-203.951,48.353-29.687,12.881-57.928,28.31-80.589,52.004-4.408,4.615-8.266,9.712-12.398,14.602,2.135-14.052,8.678-25.899,17.013-36.713,21.215-27.345,49.317-45.873,79.831-60.82,64.884-31.891,133.901-48.215,205.535-55.034,3.72-.344,7.439-.62,12.467-1.033Z"/>
    <path class="cls-5" d="m473.338,684.474c-.964-1.102-1.997-2.135-2.824-3.375-19.562-30.032-47.32-50.833-78.04-68.053-57.17-32.029-118.954-49.868-183.356-59.443-8.679-1.309-17.289-2.686-25.899-3.651-3.582-.413-5.028-1.859-5.304-5.372-.758-9.092-1.928-18.115-3.031-28.86,15.36,2.893,28.929,4.546,42.017,8.128,28.24,7.645,56.55,15.222,84.239,24.727,42.912,14.809,83.275,34.922,119.092,63.3,21.559,17.151,39.95,37.195,51.108,62.887,1.24,2.962,2.135,6.061,1.997,9.712Z"/>
    <path class="cls-5" d="m796.725,516.891c-1.171,10.401-2.066,20.113-3.719,29.756-.276,1.447-4.064,2.824-6.337,3.237-28.585,5.373-57.514,9.23-85.686,16.049-54.001,13.087-105.454,32.924-151.052,65.711-20.182,14.465-38.021,31.134-50.833,52.762-.482.827-1.24,1.515-2.342,1.997,3.168-14.464,10.401-26.932,19.217-38.503,21.904-28.929,50.626-49.593,82.035-66.882,59.787-32.924,124.396-51.797,191.14-64.126,1.928-.344,3.995,0,7.577,0Z"/>
    <path class="cls-3" d="m468.612,570.11c-54.01-29.629-93.959-69.934-89.085-118.939,1.579-15.879,8.599-30.697,18.526-43.191,37.24-46.867,86.271-75.328,54.098-125.743,32.113,5.06,59.853,17.657,73.523,54.502,14.428,30.222,6.223,59.943-12.437,89.434-11.043,11.994-15.497,31.934-17.923,54.319,11.64-18.569,23.726-34.749,36.467-47.435,9.783-9.741,18.574-20.554,24.412-33.064,4.17-8.935,6.574-16.983,7.157-24.115,20.636,26.995,32.274,56.215,27.189,89.57-2.388,15.66-9.649,30.269-20.017,42.245-17.283,19.963-33.465,31.124-49.603,41.933-9.095,6.007-17.44,16.944-25.239,31.457-1.169-29.649-6.993-49.075-17.192-58.891-15.037-12.164-25.571-30.393-32.555-53.404-1.463,31.823-10.008,61.169,22.679,101.322Z"/>
  </g>
  <g>
    <path class="cls-1" d="m1190.63,483.715c-2.714,14.603-12.227,50.607-15.284,59.777h-168.479v-12.569c29.891-2.038,32.605-4.41,32.605-32.943v-129.418c0-28.534-3.391-31.252-28.872-33.29v-12.565h105.983v12.565c-26.5,2.38-29.891,4.756-29.891,33.29v131.794c0,18.683.677,27.176,19.359,27.515.677.342,16.303.342,17.664.342,19.359,0,24.454-4.08,32.605-13.25,6.456-6.794,15.292-21.401,21.405-35.328l12.903,4.08Z"/>
    <path class="cls-1" d="m1208.302,543.493v-11.55c18.34-2.372,20.378-3.729,20.378-27.849v-66.237c0-22.758-1.695-24.116-17.664-26.153v-11.212c21.405-2.376,42.802-6.794,61.485-12.227v115.83c0,23.101,1.361,25.477,21.063,27.849v11.55h-85.262Zm39.746-175.949c-12.912,0-24.462-10.87-24.462-24.116,0-13.931,11.55-24.12,24.796-24.12,13.588,0,24.462,10.189,24.462,24.12,0,13.246-10.874,24.116-24.796,24.116Z"/>
    <path class="cls-1" d="m1379.854,543.835c-5.779,2.714-11.208,3.733-13.588,3.733-26.157,0-41.783-12.227-41.783-43.137v-94.767h-21.739l-2.038-4.08,9.855-12.908h13.922v-28.191c11.55-8.151,28.195-19.021,40.08-27.176l4.418,2.718c-.334,9.17-1.019,27.176-.677,52.649h33.966c3.057,3.399,1.695,13.926-2.714,16.987h-31.252v83.22c0,26.496,10.866,29.552,17.321,29.552,5.779,0,10.189-1.019,16.303-3.399l3.399,12.227-25.473,12.569Z"/>
    <path class="cls-1" d="m1587.402,535.342c-20.378,2.714-42.118,7.132-64.534,12.227v-23.093c-13.931,11.542-28.195,23.093-46.878,23.093-28.529,0-44.498-18.34-44.498-48.569v-70.313c0-15.626-2.038-17.326-11.208-19.702l-7.132-2.038v-10.87c17.321-.681,44.155-3.057,63.181-5.775-.685,14.265-1.019,31.929-1.019,51.292v49.592c0,22.078,11.208,29.552,23.093,29.552,9.513,0,16.987-2.038,24.462-9.851v-81.863c0-15.626-1.695-18.34-11.208-20.04l-10.189-2.038v-10.87c19.702-.681,48.565-3.057,65.553-5.775v110.735c0,17.664,2.038,21.401,12.903,22.42l7.475.677v11.208Z"/>
    <path class="cls-1" d="m1693.059,543.493h-89.68v-11.55c18.006-2.038,19.702-3.729,19.702-24.111v-74.389c0-16.987-1.361-18.683-17.321-22.082v-10.527c21.063-2.38,40.08-6.456,61.143-12.908v36.685c15.284-23.439,27.511-36.008,41.441-36.008,12.569,0,22.074,8.494,22.074,20.382,0,16.645-11.885,26.153-17.321,28.872-4.752,2.038-8.151.338-10.531-1.7-5.771-4.752-10.189-10.189-15.96-10.189-5.095,0-13.588,4.418-19.702,17.326v64.538c0,20.382,2.38,21.397,26.157,24.111v11.55Z"/>
    <path class="cls-1" d="m1875.476,510.207c-20.721,30.571-47.897,37.361-62.162,37.361-45.517,0-71.332-33.624-71.332-74.046,0-23.777,11.208-47.216,25.473-61.143,15.284-15.284,34.309-23.777,52.991-23.777,33.29,0,56.391,27.515,56.048,55.368,0,5.775-.342,11.55-4.418,12.569-6.456,1.7-54.345,4.076-87.3,5.437,1.361,36.004,21.405,54.345,45.859,54.345,13.246,0,26.5-4.752,38.727-15.284l6.113,9.17Zm-61.819-107.678c-13.588,0-25.139,15.968-27.176,42.802,13.922-.342,26.834-.681,41.099-1.019,4.76-.342,6.798-1.019,6.798-6.794.334-16.983-7.475-34.989-20.721-34.989Z"/>
    <path class="cls-1" d="m1193.328,714.865c-1.255,6.757-8.265,35.556-10.523,42.566h-129.956v-9.015c22.791-2.25,24.291-3.505,24.291-24.535v-95.655c0-21.283-3.008-22.783-20.028-24.283v-9.268h81.374c26.296,0,35.059-.253,38.564-.497.253,4.508,1.5,25.033,2.502,40.561l-9.765,1.255c-2.25-8.518-6.513-18.781-10.768-23.288-4.508-5.013-7.76-6.513-20.533-6.513h-16.278c-9.513,0-10.515.505-10.515,9.015v52.331h24.543c14.02,0,16.523-3.758,20.28-21.536h9.765v55.844h-9.765c-4.01-18.536-6.007-21.536-20.533-21.536h-24.291v43.063c0,17.281.505,22.538,16.025,22.791h17.778c14.028,0,17.778-1.753,23.288-8.518,6.26-7.255,11.265-16.523,15.275-25.033l9.268,2.25Z"/>
    <path class="cls-1" d="m1338.307,750.926c-6.016.994-29.051,4.002-49.079,9.765v-14.526c-4.508,3.008-10.768,6.757-15.275,9.765-6.007,3.758-9.765,4.508-12.52,4.508-21.283,0-51.581-18.283-51.581-55.592,0-34.301,30.298-61.599,69.359-61.599,1.753,0,6.007,0,10.018.758v-28.798c0-13.27-1.255-14.526-16.775-16.523v-8.265c16.523-1.753,36.803-5.013,49.323-8.518v143.984c0,13.515,1.508,14.77,11.021,16.025l5.51.75v8.265Zm-49.079-83.885c-2.755-7.01-9.268-12.52-18.781-12.52-7.76,0-24.535,5.258-24.535,41.563,0,32.801,18.275,44.824,29.54,45.077,4.508,0,8.265-.758,13.776-4.263v-69.856Z"/>
    <path class="cls-1" d="m1485.796,637.991c-2.755-11.518-8.265-21.03-10.768-24.535-4.508-5.258-6.513-7.263-21.283-7.263h-16.025v117.688c0,21.03,2.502,22.538,24.788,24.291v9.26h-83.135v-9.26c21.283-1.753,23.541-3.261,23.541-24.291v-117.688h-15.275c-14.02,0-18.031,2.258-22.783,8.265-3.505,4.752-7.01,13.768-10.271,23.785h-9.513c1.753-18.275,3.505-37.806,4.002-49.829h7.515c3.758,5.763,6.757,6.26,14.273,6.26h100.155c6.766,0,10.271-1.5,14.526-6.26h7.263c.253,10.515,1.255,32.556,2.502,48.826l-9.513.75Z"/>
    <path class="cls-1" d="m1586.953,732.896c-15.267,22.53-35.303,27.543-45.818,27.543-33.551,0-52.584-24.788-52.584-54.589,0-17.525,8.265-34.806,18.781-45.068,11.265-11.273,25.293-17.533,39.061-17.533,24.535,0,41.563,20.289,41.319,40.822,0,4.255-.253,8.51-3.261,9.26-4.752,1.255-40.064,3.008-64.346,4.01.994,26.541,15.773,40.064,33.803,40.064,9.765,0,19.53-3.505,28.546-11.273l4.5,6.766Zm-45.566-79.377c-10.018,0-18.536,11.77-20.036,31.554,10.271-.253,19.783-.505,30.298-.758,3.505-.245,5.013-.75,5.013-5.005.245-12.52-5.51-25.791-15.275-25.791Z"/>
    <path class="cls-1" d="m1704.144,733.149c-11.518,16.523-28.293,27.29-43.569,27.29-34.561,0-54.842-26.043-54.842-53.839,0-18.528,9.521-36.053,25.546-47.824,16.523-12.268,32.295-15.528,43.569-15.528,9.513,0,17.525,2.755,22.033,6.016,3.505,2.502,4.76,5.51,4.76,9.26-.253,7.01-7.263,14.028-11.273,14.028-1.753,0-3.505-.758-5.51-2.755-10.768-9.015-19.278-13.026-26.035-13.026-9.765,0-21.536,9.521-21.536,36.558,0,33.306,24.291,44.074,35.05,44.074,10.271,0,17.778-2.755,26.793-10.515l5.013,6.26Z"/>
    <path class="cls-1" d="m1782.03,757.431v-8.51c11.012-1.753,11.762-3.505,11.762-17.028v-44.074c0-19.278-8.013-25.791-17.778-25.791-6.007,0-12.52,1.753-18.275,7.263v62.602c0,13.523,1.247,15.275,12.765,17.028v8.51h-59.594v-8.51c12.276-1.508,14.526-2.258,14.526-18.031v-115.936c0-11.518-1.5-14.273-15.528-16.523v-8.013c18.283-1.5,35.809-5.013,47.832-8.518v77.625c8.763-8.51,21.03-16.278,33.803-16.278,21.78,0,34.806,14.273,34.806,41.824v45.818c0,15.773,1.753,16.025,13.768,18.031v8.51h-58.086Z"/>
  </g>
</svg>